<?xml version="1.0" encoding="UTF-8" standalone="no"?>
<svg
   width="193"
   height="192"
   viewBox="0 0 193 192"
   fill="none"
   version="1.1"
   id="svg29"
   sodipodi:docname="il_mailbox_setup_light.svg"
   xml:space="preserve"
   inkscape:version="1.4 (e7c3feb1, 2024-10-09)"
   xmlns:inkscape="http://www.inkscape.org/namespaces/inkscape"
   xmlns:sodipodi="http://sodipodi.sourceforge.net/DTD/sodipodi-0.dtd"
   xmlns="http://www.w3.org/2000/svg"
   xmlns:svg="http://www.w3.org/2000/svg"><defs
     id="defs29" /><sodipodi:namedview
     id="namedview29"
     pagecolor="#ffffff"
     bordercolor="#000000"
     borderopacity="0.25"
     inkscape:showpageshadow="2"
     inkscape:pageopacity="0.0"
     inkscape:pagecheckerboard="0"
     inkscape:deskcolor="#d1d1d1"
     inkscape:zoom="1.0833333"
     inkscape:cx="88.153846"
     inkscape:cy="170.30769"
     inkscape:window-width="1472"
     inkscape:window-height="1210"
     inkscape:window-x="0"
     inkscape:window-y="25"
     inkscape:window-maximized="0"
     inkscape:current-layer="svg29" /><path
     d="M189.854 29C189.854 22.3726 184.481 17 177.854 17H86.8535C80.2261 17 74.8535 22.3726 74.8535 29V163C74.8535 169.627 80.2261 175 86.8535 175H177.854C184.481 175 189.854 169.627 189.854 163V29Z"
     fill="#DDEDFE"
     id="path1" /><path
     fill-rule="evenodd"
     clip-rule="evenodd"
     d="M86.8535 18.5H177.854C183.653 18.5 188.354 23.201 188.354 29V163C188.354 168.799 183.653 173.5 177.854 173.5H86.8535C81.0545 173.5 76.3535 168.799 76.3535 163V29C76.3535 23.201 81.0545 18.5 86.8535 18.5ZM177.854 17C184.481 17 189.854 22.3726 189.854 29V163C189.854 169.627 184.481 175 177.854 175H86.8535C80.2261 175 74.8535 169.627 74.8535 163V29C74.8535 22.3726 80.2261 17 86.8535 17H177.854Z"
     fill="#196FDE"
     id="path2" /><path
     d="M183.854 35C183.854 30.5817 180.272 27 175.854 27H88.8535C84.4352 27 80.8535 30.5817 80.8535 35V157C80.8535 161.418 84.4352 165 88.8535 165H175.854C180.272 165 183.854 161.418 183.854 157V35Z"
     fill="#F9FAFB"
     id="path3" /><path
     fill-rule="evenodd"
     clip-rule="evenodd"
     d="M88.8535 28.5H175.854C179.443 28.5 182.354 31.4101 182.354 35V157C182.354 160.59 179.443 163.5 175.854 163.5H88.8535C85.2637 163.5 82.3535 160.59 82.3535 157V35C82.3535 31.4102 85.2637 28.5 88.8535 28.5ZM175.854 27C180.272 27 183.854 30.5817 183.854 35V157C183.854 161.418 180.272 165 175.854 165H88.8535C84.4352 165 80.8535 161.418 80.8535 157V35C80.8535 30.5817 84.4352 27 88.8535 27H175.854Z"
     fill="#196FDE"
     id="path4" /><path
     fill-rule="evenodd"
     clip-rule="evenodd"
     d="M132.354 38.2559C131.525 38.2559 130.854 37.5843 130.854 36.7559C130.854 35.9274 131.525 35.2559 132.354 35.2559C133.182 35.2559 133.854 35.9274 133.854 36.7559C133.854 37.5843 133.182 38.2559 132.354 38.2559ZM132.354 39.7559C130.697 39.7559 129.354 38.4127 129.354 36.7559C129.354 35.099 130.697 33.7559 132.354 33.7559C134.01 33.7559 135.354 35.099 135.354 36.7559C135.354 38.4127 134.01 39.7559 132.354 39.7559Z"
     fill="#196FDE"
     id="path5" /><path
     d="M3.85352 29.0259C3.85352 22.3985 9.2261 17.0259 15.8535 17.0259H55.8535C62.4809 17.0259 67.8535 22.3985 67.8535 29.0259V125.026C67.8535 131.653 62.4809 137.026 55.8535 137.026H15.8535C9.2261 137.026 3.85352 131.653 3.85352 125.026V29.0259Z"
     fill="#ECFCCB"
     id="path7" /><path
     fill-rule="evenodd"
     clip-rule="evenodd"
     d="M55.8535 18.5259H15.8535C10.0545 18.5259 5.35352 23.2269 5.35352 29.0259V125.026C5.35352 130.825 10.0545 135.526 15.8535 135.526H55.8535C61.6525 135.526 66.3535 130.825 66.3535 125.026V29.0259C66.3535 23.2269 61.6525 18.5259 55.8535 18.5259ZM15.8535 17.0259C9.2261 17.0259 3.85352 22.3985 3.85352 29.0259V125.026C3.85352 131.653 9.2261 137.026 15.8535 137.026H55.8535C62.4809 137.026 67.8535 131.653 67.8535 125.026V29.0259C67.8535 22.3985 62.4809 17.0259 55.8535 17.0259H15.8535Z"
     fill="#65A30D"
     id="path8" /><path
     fill-rule="evenodd"
     clip-rule="evenodd"
     d="M35.8534 27.0109C35.3345 27.0109 34.8919 26.5831 34.8919 26.0282C34.8919 25.4732 35.3345 25.0454 35.8534 25.0454C36.3723 25.0454 36.8149 25.4732 36.8149 26.0282C36.8149 26.5831 36.3723 27.0109 35.8534 27.0109ZM35.8534 28.5109C34.4939 28.5109 33.3919 27.3994 33.3919 26.0282C33.3919 24.657 34.4939 23.5454 35.8534 23.5454C37.2129 23.5454 38.3149 24.657 38.3149 26.0282C38.3149 27.3994 37.2129 28.5109 35.8534 28.5109Z"
     fill="#65A30D"
     id="path9" /><path
     fill-rule="evenodd"
     clip-rule="evenodd"
     d="M20.334 25.7661C20.334 25.3519 20.6698 25.0161 21.084 25.0161H29.2891C29.7033 25.0161 30.0391 25.3519 30.0391 25.7661C30.0391 26.1803 29.7033 26.5161 29.2891 26.5161H21.084C20.6698 26.5161 20.334 26.1803 20.334 25.7661Z"
     fill="#65A30D"
     id="path10" /><path
     fill-rule="evenodd"
     clip-rule="evenodd"
     d="M41.6675 25.7661C41.6675 25.3519 42.0033 25.0161 42.4175 25.0161L50.6226 25.0161C51.0368 25.0161 51.3726 25.3519 51.3726 25.7661C51.3726 26.1803 51.0368 26.5161 50.6226 26.5161L42.4175 26.5161C42.0033 26.5161 41.6675 26.1803 41.6675 25.7661Z"
     fill="#65A30D"
     id="path11" /><path
     d="M62.1099 41.2485C62.1099 36.8303 58.5281 33.2485 54.1099 33.2485H17.597C13.1788 33.2485 9.59705 36.8303 9.59705 41.2485V117.938C9.59705 122.356 13.1788 125.938 17.597 125.938H54.1099C58.5281 125.938 62.1099 122.356 62.1099 117.938V41.2485Z"
     fill="#F9FAFB"
     id="path12" /><path
     fill-rule="evenodd"
     clip-rule="evenodd"
     d="M17.597 34.7485H54.1099C57.6997 34.7485 60.6099 37.6587 60.6099 41.2485V117.938C60.6099 121.528 57.6997 124.438 54.1099 124.438H17.597C14.0072 124.438 11.097 121.528 11.097 117.938V41.2485C11.097 37.6587 14.0072 34.7485 17.597 34.7485ZM54.1099 33.2485C58.5281 33.2485 62.1099 36.8303 62.1099 41.2485V117.938C62.1099 122.356 58.5281 125.938 54.1099 125.938H17.597C13.1788 125.938 9.59705 122.356 9.59705 117.938V41.2485C9.59705 36.8303 13.1788 33.2485 17.597 33.2485H54.1099Z"
     fill="#65A30D"
     id="path13" /><path
     d="M67.8535 155C67.8535 150.582 64.2718 147 59.8535 147H47.8535C43.4352 147 39.8535 150.582 39.8535 155V167C39.8535 171.418 43.4352 175 47.8535 175H59.8535C64.2718 175 67.8535 171.418 67.8535 167V155Z"
     fill="#DDEDFE"
     id="path22" /><path
     fill-rule="evenodd"
     clip-rule="evenodd"
     d="M47.8535 148.5H59.8535C63.4434 148.5 66.3535 151.41 66.3535 155V167C66.3535 170.59 63.4434 173.5 59.8535 173.5H47.8535C44.2637 173.5 41.3535 170.59 41.3535 167V155C41.3535 151.41 44.2637 148.5 47.8535 148.5ZM59.8535 147C64.2718 147 67.8535 150.582 67.8535 155V167C67.8535 171.418 64.2718 175 59.8535 175H47.8535C43.4352 175 39.8535 171.418 39.8535 167V155C39.8535 150.582 43.4352 147 47.8535 147H59.8535Z"
     fill="#196FDE"
     id="path23" /><path
     d="M56.7688 155.31H53.4511L49.2031 162.624H53.4511L52.1942 167.727L58.5032 159.633H54.3307L56.7688 155.31Z"
     fill="#196FDE"
     id="path24" /><path
     d="M31.8535 155C31.8535 150.582 28.2718 147 23.8535 147H11.8535C7.43524 147 3.85351 150.582 3.85351 155V167C3.85351 171.418 7.43524 175 11.8535 175H23.8535C28.2718 175 31.8535 171.418 31.8535 167V155Z"
     fill="#ECFCCB"
     id="path25" /><path
     fill-rule="evenodd"
     clip-rule="evenodd"
     d="M11.8535 148.5H23.8535C27.4434 148.5 30.3535 151.41 30.3535 155V167C30.3535 170.59 27.4434 173.5 23.8535 173.5H11.8535C8.26366 173.5 5.35351 170.59 5.35351 167V155C5.35351 151.41 8.26366 148.5 11.8535 148.5ZM23.8535 147C28.2718 147 31.8535 150.582 31.8535 155V167C31.8535 171.418 28.2718 175 23.8535 175H11.8535C7.43524 175 3.85351 171.418 3.85351 167V155C3.85351 150.582 7.43524 147 11.8535 147H23.8535Z"
     fill="#65A30D"
     id="path26" /><path
     fill-rule="evenodd"
     clip-rule="evenodd"
     d="M11.6309 158.864C12.4478 158.047 13.4177 157.399 14.4851 156.957C15.5525 156.515 16.6965 156.287 17.8519 156.287C19.0072 156.287 20.1513 156.515 21.2187 156.957C22.2861 157.399 23.2559 158.047 24.0729 158.864L23.0122 159.924C22.3345 159.247 21.53 158.709 20.6446 158.343C19.7592 157.976 18.8102 157.787 17.8519 157.787C16.8935 157.787 15.9445 157.976 15.0591 158.343C14.1737 158.709 13.3692 159.247 12.6916 159.924L11.6309 158.864Z"
     fill="#65A30D"
     id="path27" /><path
     fill-rule="evenodd"
     clip-rule="evenodd"
     d="M13.958 161.187C14.4695 160.676 15.0768 160.27 15.7451 159.993C16.4134 159.716 17.1297 159.574 17.8531 159.574C18.5765 159.574 19.2928 159.716 19.9611 159.993C20.6294 160.27 21.2367 160.676 21.7482 161.187L20.6875 162.248C20.3153 161.875 19.8734 161.58 19.387 161.379C18.9007 161.177 18.3795 161.074 17.8531 161.074C17.3267 161.074 16.8055 161.177 16.3191 161.379C15.8328 161.58 15.3909 161.875 15.0187 162.248L13.958 161.187Z"
     fill="#65A30D"
     id="path28" /><path
     d="M18.8098 164.126C18.8098 164.654 18.3813 165.083 17.8527 165.083C17.324 165.083 16.8955 164.654 16.8955 164.126C16.8955 163.597 17.324 163.168 17.8527 163.168C18.3813 163.168 18.8098 163.597 18.8098 164.126Z"
     fill="#65A30D"
     id="path29" /><path
     d="m 35.617292,60.056826 c -10.727651,0 -19.504821,8.777168 -19.504821,19.504822 0,10.727653 8.77717,19.504819 19.504821,19.504819 10.727654,0 19.504824,-8.777166 19.504824,-19.504819 0,-10.727654 -8.77717,-19.504822 -19.504824,-19.504822 m 7.996979,29.257233 c -0.370592,0 -0.663164,-0.195047 -1.072766,-0.526631 L 32.477016,80.65392 29.102682,89.119012 h -2.906217 l 8.523607,-20.499566 c 0.214552,-0.54614 0.682669,-0.819206 1.228803,-0.819206 0.546134,0 0.975241,0.273066 1.2093,0.819206 l 7.762918,18.685616 c 0.07802,0.214556 0.136533,0.429104 0.136533,0.565641 -0.01949,0.819205 -0.663163,1.443356 -1.443355,1.443356 m -7.665396,-17.339787 5.051749,12.463585 -7.626385,-6.00749 z"
     id="path1-2"
     style="fill:#000000;stroke:none;stroke-width:1.95047" /><path
     d="m 120.91868,76.886971 a 7.0317114,7.0317114 0 0 0 -7.03171,7.03171 v 28.126849 h 7.03171 V 83.918681 h 7.03171 v 24.610989 h 7.03171 V 83.918681 h 7.03172 v 28.126849 h 7.03171 V 83.918681 a 7.0317114,7.0317114 0 0 0 -7.03171,-7.03171 H 120.91868 M 131.46625,59.307692 A 35.158554,35.158554 0 0 1 166.6248,94.466246 35.158554,35.158554 0 0 1 131.46625,129.6248 35.158554,35.158554 0 0 1 96.307692,94.466246 35.158554,35.158554 0 0 1 131.46625,59.307692 Z"
     id="path1-7"
     style="fill:#000000;fill-opacity:1;stroke:none;stroke-width:3.51587" /></svg>
