<?xml version="1.0" encoding="UTF-8" standalone="no"?>
<svg
   width="193"
   height="192"
   viewBox="0 0 193 192"
   fill="none"
   version="1.1"
   id="svg29"
   sodipodi:docname="il_mailbox_setup_dark.svg"
   xml:space="preserve"
   inkscape:version="1.4 (e7c3feb1, 2024-10-09)"
   xmlns:inkscape="http://www.inkscape.org/namespaces/inkscape"
   xmlns:sodipodi="http://sodipodi.sourceforge.net/DTD/sodipodi-0.dtd"
   xmlns="http://www.w3.org/2000/svg"
   xmlns:svg="http://www.w3.org/2000/svg"><defs
     id="defs29" /><sodipodi:namedview
     id="namedview29"
     pagecolor="#ffffff"
     bordercolor="#000000"
     borderopacity="0.25"
     inkscape:showpageshadow="2"
     inkscape:pageopacity="0.0"
     inkscape:pagecheckerboard="0"
     inkscape:deskcolor="#d1d1d1"
     inkscape:zoom="2.1666667"
     inkscape:cx="116.07692"
     inkscape:cy="30.230769"
     inkscape:window-width="1360"
     inkscape:window-height="1102"
     inkscape:window-x="0"
     inkscape:window-y="25"
     inkscape:window-maximized="0"
     inkscape:current-layer="svg29" /><path
     d="M189.401 29C189.401 22.3726 184.029 17 177.401 17H86.4014C79.7739 17 74.4014 22.3726 74.4014 29V163C74.4014 169.627 79.7739 175 86.4014 175H177.401C184.029 175 189.401 169.627 189.401 163V29Z"
     fill="#1E293B"
     id="path1" /><path
     fill-rule="evenodd"
     clip-rule="evenodd"
     d="M86.4014 18.5H177.401C183.2 18.5 187.901 23.201 187.901 29V163C187.901 168.799 183.2 173.5 177.401 173.5H86.4014C80.6024 173.5 75.9014 168.799 75.9014 163V29C75.9014 23.201 80.6024 18.5 86.4014 18.5ZM177.401 17C184.029 17 189.401 22.3726 189.401 29V163C189.401 169.627 184.029 175 177.401 175H86.4014C79.7739 175 74.4014 169.627 74.4014 163V29C74.4014 22.3726 79.7739 17 86.4014 17H177.401Z"
     fill="#52ADF9"
     id="path2" /><path
     d="M183.401 35C183.401 30.5817 179.82 27 175.401 27H88.4014C83.9831 27 80.4014 30.5817 80.4014 35V157C80.4014 161.418 83.9831 165 88.4014 165H175.401C179.82 165 183.401 161.418 183.401 157V35Z"
     fill="#0B1120"
     id="path3" /><path
     d="m 124.52637,82.002354 a 4.6778653,4.6778653 0 0 0 -4.67786,4.677865 v 18.711461 h 4.67786 V 86.680219 h 4.67787 v 16.372531 h 4.67786 V 86.680219 h 4.67787 v 18.711461 h 4.67786 V 86.680219 a 4.6778653,4.6778653 0 0 0 -4.67786,-4.677865 h -14.0336 m 7.0168,-11.694664 A 23.389325,23.389325 0 0 1 154.93249,93.697015 23.389325,23.389325 0 0 1 131.54317,117.08634 23.389325,23.389325 0 0 1 108.15384,93.697015 23.389325,23.389325 0 0 1 131.54317,70.30769 Z"
     id="path1-3"
     style="fill:#ffffff;fill-opacity:1;stroke:none;stroke-width:2.33894" /><path
     fill-rule="evenodd"
     clip-rule="evenodd"
     d="M88.4014 28.5H175.401C178.991 28.5 181.901 31.4101 181.901 35V157C181.901 160.59 178.991 163.5 175.401 163.5H88.4014C84.8115 163.5 81.9014 160.59 81.9014 157V35C81.9014 31.4102 84.8115 28.5 88.4014 28.5ZM175.401 27C179.82 27 183.401 30.5817 183.401 35V157C183.401 161.418 179.82 165 175.401 165H88.4014C83.9831 165 80.4014 161.418 80.4014 157V35C80.4014 30.5817 83.9831 27 88.4014 27H175.401Z"
     fill="#52ADF9"
     id="path4" /><path
     fill-rule="evenodd"
     clip-rule="evenodd"
     d="M131.901 38.2559C131.073 38.2559 130.401 37.5843 130.401 36.7559C130.401 35.9274 131.073 35.2559 131.901 35.2559C132.73 35.2559 133.401 35.9274 133.401 36.7559C133.401 37.5843 132.73 38.2559 131.901 38.2559ZM131.901 39.7559C130.245 39.7559 128.901 38.4127 128.901 36.7559C128.901 35.099 130.245 33.7559 131.901 33.7559C133.558 33.7559 134.901 35.099 134.901 36.7559C134.901 38.4127 133.558 39.7559 131.901 39.7559Z"
     fill="#52ADF9"
     id="path5" /><path
     d="M3.40137 29.0259C3.40137 22.3985 8.77395 17.0259 15.4014 17.0259H55.4014C62.0288 17.0259 67.4014 22.3985 67.4014 29.0259V125.026C67.4014 131.653 62.0288 137.026 55.4014 137.026H15.4014C8.77395 137.026 3.40137 131.653 3.40137 125.026V29.0259Z"
     fill="#1E293B"
     id="path7" /><path
     fill-rule="evenodd"
     clip-rule="evenodd"
     d="M55.4014 18.5259H15.4014C9.60238 18.5259 4.90137 23.2269 4.90137 29.0259V125.026C4.90137 130.825 9.60238 135.526 15.4014 135.526H55.4014C61.2004 135.526 65.9014 130.825 65.9014 125.026V29.0259C65.9014 23.2269 61.2004 18.5259 55.4014 18.5259ZM15.4014 17.0259C8.77395 17.0259 3.40137 22.3985 3.40137 29.0259V125.026C3.40137 131.653 8.77395 137.026 15.4014 137.026H55.4014C62.0288 137.026 67.4014 131.653 67.4014 125.026V29.0259C67.4014 22.3985 62.0288 17.0259 55.4014 17.0259H15.4014Z"
     fill="#A3E635"
     id="path8" /><path
     fill-rule="evenodd"
     clip-rule="evenodd"
     d="M35.4013 27.0109C34.8823 27.0109 34.4397 26.5831 34.4397 26.0282C34.4397 25.4732 34.8823 25.0454 35.4013 25.0454C35.9202 25.0454 36.3628 25.4732 36.3628 26.0282C36.3628 26.5831 35.9202 27.0109 35.4013 27.0109ZM35.4013 28.5109C34.0418 28.5109 32.9397 27.3994 32.9397 26.0282C32.9397 24.657 34.0418 23.5454 35.4013 23.5454C36.7607 23.5454 37.8628 24.657 37.8628 26.0282C37.8628 27.3994 36.7607 28.5109 35.4013 28.5109Z"
     fill="#A3E635"
     id="path9" /><path
     fill-rule="evenodd"
     clip-rule="evenodd"
     d="M19.8823 25.7661C19.8823 25.3519 20.2181 25.0161 20.6323 25.0161H28.8375C29.2517 25.0161 29.5875 25.3519 29.5875 25.7661C29.5875 26.1803 29.2517 26.5161 28.8375 26.5161H20.6323C20.2181 26.5161 19.8823 26.1803 19.8823 25.7661Z"
     fill="#A3E635"
     id="path10" /><path
     fill-rule="evenodd"
     clip-rule="evenodd"
     d="M41.2153 25.7661C41.2153 25.3519 41.5511 25.0161 41.9653 25.0161L50.1705 25.0161C50.5847 25.0161 50.9205 25.3519 50.9205 25.7661C50.9205 26.1803 50.5847 26.5161 50.1705 26.5161L41.9653 26.5161C41.5511 26.5161 41.2153 26.1803 41.2153 25.7661Z"
     fill="#A3E635"
     id="path11" /><path
     d="M61.6577 41.2485C61.6577 36.8303 58.076 33.2485 53.6577 33.2485H17.1449C12.7266 33.2485 9.1449 36.8303 9.1449 41.2485V117.938C9.1449 122.356 12.7266 125.938 17.1449 125.938H53.6577C58.076 125.938 61.6577 122.356 61.6577 117.938V41.2485Z"
     fill="#0B1120"
     id="path12" /><path
     fill-rule="evenodd"
     clip-rule="evenodd"
     d="M17.1449 34.7485H53.6577C57.2476 34.7485 60.1577 37.6587 60.1577 41.2485V117.938C60.1577 121.528 57.2476 124.438 53.6577 124.438H17.1449C13.555 124.438 10.6449 121.528 10.6449 117.938V41.2485C10.6449 37.6587 13.555 34.7485 17.1449 34.7485ZM53.6577 33.2485C58.076 33.2485 61.6577 36.8303 61.6577 41.2485V117.938C61.6577 122.356 58.076 125.938 53.6577 125.938H17.1449C12.7266 125.938 9.1449 122.356 9.1449 117.938V41.2485C9.1449 36.8303 12.7266 33.2485 17.1449 33.2485H53.6577Z"
     fill="#A3E635"
     id="path13" /><path
     d="M67.4014 155C67.4014 150.582 63.8196 147 59.4014 147H47.4014C42.9831 147 39.4014 150.582 39.4014 155V167C39.4014 171.418 42.9831 175 47.4014 175H59.4014C63.8196 175 67.4014 171.418 67.4014 167V155Z"
     fill="#1E293B"
     id="path22" /><path
     fill-rule="evenodd"
     clip-rule="evenodd"
     d="M47.4014 148.5H59.4014C62.9912 148.5 65.9014 151.41 65.9014 155V167C65.9014 170.59 62.9912 173.5 59.4014 173.5H47.4014C43.8115 173.5 40.9014 170.59 40.9014 167V155C40.9014 151.41 43.8115 148.5 47.4014 148.5ZM59.4014 147C63.8196 147 67.4014 150.582 67.4014 155V167C67.4014 171.418 63.8196 175 59.4014 175H47.4014C42.9831 175 39.4014 171.418 39.4014 167V155C39.4014 150.582 42.9831 147 47.4014 147H59.4014Z"
     fill="#52ADF9"
     id="path23" /><path
     d="M56.3172 155.31H52.9994L48.7515 162.624H52.9994L51.7425 167.727L58.0515 159.633H53.8791L56.3172 155.31Z"
     fill="#52ADF9"
     id="path24" /><path
     d="M31.4014 155C31.4014 150.582 27.8196 147 23.4014 147H11.4014C6.98309 147 3.40137 150.582 3.40137 155V167C3.40137 171.418 6.98309 175 11.4014 175H23.4014C27.8196 175 31.4014 171.418 31.4014 167V155Z"
     fill="#1E293B"
     id="path25" /><path
     fill-rule="evenodd"
     clip-rule="evenodd"
     d="M11.4014 148.5H23.4014C26.9912 148.5 29.9014 151.41 29.9014 155V167C29.9014 170.59 26.9912 173.5 23.4014 173.5H11.4014C7.81152 173.5 4.90137 170.59 4.90137 167V155C4.90137 151.41 7.81152 148.5 11.4014 148.5ZM23.4014 147C27.8196 147 31.4014 150.582 31.4014 155V167C31.4014 171.418 27.8196 175 23.4014 175H11.4014C6.98309 175 3.40137 171.418 3.40137 167V155C3.40137 150.582 6.98309 147 11.4014 147H23.4014Z"
     fill="#A3E635"
     id="path26" /><path
     fill-rule="evenodd"
     clip-rule="evenodd"
     d="M11.1787 158.864C11.9957 158.047 12.9655 157.399 14.0329 156.957C15.1003 156.515 16.2444 156.287 17.3997 156.287C18.5551 156.287 19.6991 156.515 20.7665 156.957C21.8339 157.399 22.8038 158.047 23.6207 158.864L22.56 159.924C21.8824 159.247 21.0779 158.709 20.1925 158.343C19.3071 157.976 18.3581 157.787 17.3997 157.787C16.4414 157.787 15.4924 157.976 14.607 158.343C13.7216 158.709 12.9171 159.247 12.2394 159.924L11.1787 158.864Z"
     fill="#A3E635"
     id="path27" /><path
     fill-rule="evenodd"
     clip-rule="evenodd"
     d="M13.5059 161.187C14.0174 160.676 14.6246 160.27 15.2929 159.993C15.9613 159.716 16.6776 159.574 17.4009 159.574C18.1243 159.574 18.8406 159.716 19.5089 159.993C20.1773 160.27 20.7845 160.676 21.296 161.187L20.2353 162.248C19.8631 161.875 19.4212 161.58 18.9349 161.379C18.4486 161.177 17.9273 161.074 17.4009 161.074C16.8745 161.074 16.3533 161.177 15.867 161.379C15.3807 161.58 14.9388 161.875 14.5666 162.248L13.5059 161.187Z"
     fill="#A3E635"
     id="path28" /><path
     d="M18.3581 164.126C18.3581 164.654 17.9296 165.083 17.401 165.083C16.8724 165.083 16.4438 164.654 16.4438 164.126C16.4438 163.597 16.8724 163.168 17.401 163.168C17.9296 163.168 18.3581 163.597 18.3581 164.126Z"
     fill="#A3E635"
     id="path29" /><path
     d="m 35.161314,60.153847 c -10.327184,0 -18.776699,8.44951 -18.776699,18.7767 0,10.32719 8.449515,18.7767 18.776699,18.7767 10.327185,0 18.776699,-8.44951 18.776699,-18.7767 0,-10.32719 -8.449514,-18.7767 -18.776699,-18.7767 m 7.698447,28.16505 c -0.356757,0 -0.638408,-0.18777 -1.032718,-0.50697 l -9.688778,-7.82988 -3.248368,8.14908 h -2.797728 l 8.205417,-19.73431 c 0.206543,-0.52575 0.657185,-0.78862 1.182932,-0.78862 0.525747,0 0.938835,0.26287 1.164156,0.78862 l 7.473125,17.98808 c 0.07511,0.20654 0.131436,0.41309 0.131436,0.54452 -0.01877,0.78862 -0.638406,1.38948 -1.389474,1.38948 m -7.379243,-16.69249 4.863164,11.99831 -7.341688,-5.78322 z"
     id="path1-2"
     style="fill:#ffffff;stroke:none;stroke-width:1.87766" /></svg>
