<?xml version="1.0" encoding="UTF-8" standalone="no"?>
<svg
   width="193"
   height="192"
   viewBox="0 0 193 192"
   fill="none"
   version="1.1"
   id="svg35"
   sodipodi:docname="il_mailbox_dark.svg"
   xml:space="preserve"
   inkscape:version="1.4 (e7c3feb1, 2024-10-09)"
   xmlns:inkscape="http://www.inkscape.org/namespaces/inkscape"
   xmlns:sodipodi="http://sodipodi.sourceforge.net/DTD/sodipodi-0.dtd"
   xmlns="http://www.w3.org/2000/svg"
   xmlns:svg="http://www.w3.org/2000/svg"><defs
     id="defs35" /><sodipodi:namedview
     id="namedview35"
     pagecolor="#ffffff"
     bordercolor="#000000"
     borderopacity="0.25"
     inkscape:showpageshadow="2"
     inkscape:pageopacity="0.0"
     inkscape:pagecheckerboard="0"
     inkscape:deskcolor="#d1d1d1"
     inkscape:zoom="2.1398599"
     inkscape:cx="49.769613"
     inkscape:cy="24.300656"
     inkscape:window-width="1568"
     inkscape:window-height="1151"
     inkscape:window-x="0"
     inkscape:window-y="25"
     inkscape:window-maximized="0"
     inkscape:current-layer="svg35" /><path
     d="M112.401 21C112.401 16.5817 108.82 13 104.401 13H88.4014C83.9831 13 80.4014 16.5817 80.4014 21V37C80.4014 41.4183 83.9831 45 88.4014 45H104.401C108.82 45 112.401 41.4183 112.401 37V21Z"
     fill="#1E293B"
     id="path1" /><path
     fill-rule="evenodd"
     clip-rule="evenodd"
     d="M88.4014 14.5H104.401C107.991 14.5 110.901 17.4101 110.901 21V37C110.901 40.5899 107.991 43.5 104.401 43.5H88.4014C84.8115 43.5 81.9014 40.5899 81.9014 37V21C81.9014 17.4101 84.8115 14.5 88.4014 14.5ZM104.401 13C108.82 13 112.401 16.5817 112.401 21V37C112.401 41.4183 108.82 45 104.401 45H88.4014C83.9831 45 80.4014 41.4183 80.4014 37V21C80.4014 16.5817 83.9831 13 88.4014 13H104.401Z"
     fill="#52ADF9"
     id="path2" /><path
     d="M60.4014 127C60.4014 122.582 56.8196 119 52.4014 119H36.4014C31.9831 119 28.4014 122.582 28.4014 127V143C28.4014 147.418 31.9831 151 36.4014 151H52.4014C56.8196 151 60.4014 147.418 60.4014 143V127Z"
     fill="#1E293B"
     id="path3" /><path
     fill-rule="evenodd"
     clip-rule="evenodd"
     d="M36.4014 120.5H52.4014C55.9912 120.5 58.9014 123.41 58.9014 127V143C58.9014 146.59 55.9912 149.5 52.4014 149.5H36.4014C32.8115 149.5 29.9014 146.59 29.9014 143V127C29.9014 123.41 32.8115 120.5 36.4014 120.5ZM52.4014 119C56.8196 119 60.4014 122.582 60.4014 127V143C60.4014 147.418 56.8196 151 52.4014 151H36.4014C31.9831 151 28.4014 147.418 28.4014 143V127C28.4014 122.582 31.9831 119 36.4014 119H52.4014Z"
     fill="#52ADF9"
     id="path4" /><path
     fill-rule="evenodd"
     clip-rule="evenodd"
     d="M43.6514 116L43.6514 100L45.1514 100L45.1514 116L43.6514 116Z"
     fill="#64748B"
     id="path5" /><path
     fill-rule="evenodd"
     clip-rule="evenodd"
     d="M95.6514 66L95.6514 48L97.1514 48L97.1514 66L95.6514 66Z"
     fill="#64748B"
     id="path6" /><path
     fill-rule="evenodd"
     clip-rule="evenodd"
     d="M95.6514 155L95.6514 126L97.1514 126L97.1514 155L95.6514 155Z"
     fill="#64748B"
     id="path7" /><path
     fill-rule="evenodd"
     clip-rule="evenodd"
     d="M150.151 67V92H148.651V67H150.151Z"
     fill="#64748B"
     id="path8" /><path
     fill-rule="evenodd"
     clip-rule="evenodd"
     d="M149.171 96.4512H126.401V94.9512H149.171C153.579 94.9512 157.151 98.524 157.151 102.931L157.151 121.701L155.651 121.701L155.651 102.931C155.651 99.3524 152.75 96.4512 149.171 96.4512Z"
     fill="#A3E635"
     id="path9" /><path
     fill-rule="evenodd"
     clip-rule="evenodd"
     d="M43.6314 95.25L66.4014 95.25L66.4014 96.75L43.6314 96.75C39.2241 96.75 35.6514 93.1772 35.6515 88.77L35.6518 70L37.1518 70L37.1515 88.77C37.1514 92.3488 40.0526 95.25 43.6314 95.25Z"
     fill="#A3E635"
     id="path10" /><path
     d="M157.401 52C157.401 49.7909 155.611 48 153.401 48H145.401C143.192 48 141.401 49.7909 141.401 52V60C141.401 62.2091 143.192 64 145.401 64H153.401C155.611 64 157.401 62.2091 157.401 60V52Z"
     fill="#1E293B"
     id="path11" /><path
     fill-rule="evenodd"
     clip-rule="evenodd"
     d="M145.401 49.5H153.401C154.782 49.5 155.901 50.6193 155.901 52V60C155.901 61.3807 154.782 62.5 153.401 62.5H145.401C144.021 62.5 142.901 61.3807 142.901 60V52C142.901 50.6193 144.021 49.5 145.401 49.5ZM153.401 48C155.611 48 157.401 49.7909 157.401 52V60C157.401 62.2091 155.611 64 153.401 64H145.401C143.192 64 141.401 62.2091 141.401 60V52C141.401 49.7909 143.192 48 145.401 48H153.401Z"
     fill="#64748B"
     id="path12" /><path
     d="M104.401 162C104.401 159.791 102.611 158 100.401 158H92.4014C90.1922 158 88.4014 159.791 88.4014 162V170C88.4014 172.209 90.1922 174 92.4014 174H100.401C102.611 174 104.401 172.209 104.401 170V162Z"
     fill="#1E293B"
     id="path13" /><path
     fill-rule="evenodd"
     clip-rule="evenodd"
     d="M92.4014 159.5H100.401C101.782 159.5 102.901 160.619 102.901 162V170C102.901 171.381 101.782 172.5 100.401 172.5H92.4014C91.0207 172.5 89.9014 171.381 89.9014 170V162C89.9014 160.619 91.0207 159.5 92.4014 159.5ZM100.401 158C102.611 158 104.401 159.791 104.401 162V170C104.401 172.209 102.611 174 100.401 174H92.4014C90.1922 174 88.4014 172.209 88.4014 170V162C88.4014 159.791 90.1922 158 92.4014 158H100.401Z"
     fill="#64748B"
     id="path14" /><path
     d="M123.242 81C123.242 74.3726 117.87 69 111.242 69H81.2422C74.6148 69 69.2422 74.3726 69.2422 81V111C69.2422 117.627 74.6148 123 81.2422 123H111.242C117.87 123 123.242 117.627 123.242 111V81Z"
     fill="#1E293B"
     id="path15" /><path
     fill-rule="evenodd"
     clip-rule="evenodd"
     d="M81.2422 70.5H111.242C117.041 70.5 121.742 75.201 121.742 81V111C121.742 116.799 117.041 121.5 111.242 121.5H81.2422C75.4432 121.5 70.7422 116.799 70.7422 111V81C70.7422 75.201 75.4432 70.5 81.2422 70.5ZM111.242 69C117.87 69 123.242 74.3726 123.242 81V111C123.242 117.627 117.87 123 111.242 123H81.2422C74.6148 123 69.2422 117.627 69.2422 111V81C69.2422 74.3726 74.6148 69 81.2422 69H111.242Z"
     fill="#A3E635"
     id="path16" /><path
     d="m 92.020414,89.658383 a 2.6202083,2.6202083 0 0 0 -2.620207,2.620205 v 10.480842 h 2.620207 V 92.278588 h 2.620208 v 9.170732 h 2.620208 v -9.170732 h 2.620206 v 10.480842 h 2.620214 V 92.278588 a 2.6202083,2.6202083 0 0 0 -2.620214,-2.620205 h -7.860622 m 3.930312,-6.550519 A 13.101041,13.101041 0 0 1 109.05176,96.208903 13.101041,13.101041 0 0 1 95.950726,109.30994 13.101041,13.101041 0 0 1 82.849685,96.208903 13.101041,13.101041 0 0 1 95.950726,83.107864 Z"
     id="path1-4"
     style="fill:#ffffff;fill-opacity:1;stroke:none;stroke-width:1.31011" /><path
     d="m 36.401138,34.111125 c -8.59284,0 -15.62334,7.030504 -15.62334,15.623341 0,8.592839 7.0305,15.623342 15.62334,15.623342 8.59284,0 15.62334,-7.030503 15.62334,-15.623342 0,-8.592837 -7.0305,-15.623341 -15.62334,-15.623341 m 6.40557,23.435011 c -0.29684,0 -0.53119,-0.156232 -0.85928,-0.421829 l -8.06165,-6.514933 -2.70283,6.78053 h -2.32788 l 6.8274,-16.420132 c 0.17185,-0.437454 0.54681,-0.656181 0.98427,-0.656181 0.43745,0 0.78117,0.218727 0.96865,0.656181 l 6.21808,14.967161 c 0.0625,0.171856 0.10937,0.343713 0.10937,0.453077 -0.0156,0.65618 -0.53119,1.156126 -1.15613,1.156126 m -6.13997,-13.88915 4.04644,9.983316 -6.10872,-4.81199 z"
     id="path1-7"
     style="fill:#ffffff;stroke:none;stroke-width:1.56233" /><path
     d="m 156.78022,128.93138 c -8.59284,0 -15.62334,7.03051 -15.62334,15.62334 0,8.59284 7.0305,15.62335 15.62334,15.62335 8.59284,0 15.62334,-7.03051 15.62334,-15.62335 0,-8.59283 -7.0305,-15.62334 -15.62334,-15.62334 m 6.40557,23.43501 c -0.29684,0 -0.53119,-0.15623 -0.85928,-0.42183 l -8.06165,-6.51493 -2.70283,6.78053 h -2.32788 l 6.8274,-16.42013 c 0.17185,-0.43745 0.54681,-0.65618 0.98427,-0.65618 0.43745,0 0.78117,0.21873 0.96865,0.65618 l 6.21808,14.96716 c 0.0625,0.17186 0.10937,0.34371 0.10937,0.45308 -0.0156,0.65618 -0.53119,1.15612 -1.15613,1.15612 m -6.13997,-13.88915 4.04644,9.98332 -6.10872,-4.81199 z"
     id="path1-7-2"
     style="fill:#ffffff;stroke:none;stroke-width:1.56233" /></svg>
