<?xml version="1.0" encoding="UTF-8" standalone="no"?>
<svg
   viewBox="0 0 279.86108 279.86108"
   version="1.1"
   id="svg1"
   sodipodi:docname="logo_circle_black.svg"
   width="279.86108"
   height="279.86108"
   xml:space="preserve"
   inkscape:version="1.4 (e7c3feb1, 2024-10-09)"
   xmlns:inkscape="http://www.inkscape.org/namespaces/inkscape"
   xmlns:sodipodi="http://sodipodi.sourceforge.net/DTD/sodipodi-0.dtd"
   xmlns="http://www.w3.org/2000/svg"
   xmlns:svg="http://www.w3.org/2000/svg"><defs
     id="defs1" /><sodipodi:namedview
     id="namedview1"
     pagecolor="#ffffff"
     bordercolor="#000000"
     borderopacity="0.25"
     inkscape:showpageshadow="2"
     inkscape:pageopacity="0.0"
     inkscape:pagecheckerboard="0"
     inkscape:deskcolor="#d1d1d1"
     inkscape:zoom="1.5320647"
     inkscape:cx="185.69712"
     inkscape:cy="146.86064"
     inkscape:window-width="1472"
     inkscape:window-height="1157"
     inkscape:window-x="1857"
     inkscape:window-y="92"
     inkscape:window-maximized="0"
     inkscape:current-layer="svg1" /><path
     d="M 139.93054,0 C 62.968744,0 0,62.968744 0,139.93054 c 0,76.96181 62.968744,139.93055 139.93054,139.93055 76.96181,0 139.93055,-62.96874 139.93055,-139.93055 C 279.86109,62.968744 216.89235,0 139.93054,0 m 57.37153,209.89581 c -2.65868,0 -4.75764,-1.3993 -7.69618,-3.77812 L 117.40172,147.76666 93.193741,208.49651 H 72.344092 L 133.49374,61.429507 c 1.53923,-3.918055 4.89757,-5.877082 8.81562,-5.877082 3.91805,0 6.99653,1.959027 8.6757,5.877082 l 55.69235,134.053463 c 0.55974,1.53923 0.97951,3.07847 0.97951,4.05799 -0.13987,5.87708 -4.75763,10.35485 -10.35485,10.35485 M 142.30936,85.497561 178.55137,174.91318 123.83853,131.81457 Z"
     id="path1"
     style="stroke-width:13.993;fill:#000000;stroke:none" /></svg>
